<?xml version="1.0" encoding="utf-8"?>
<svg viewBox="0 0 170 172" width="170" height="172" xmlns="http://www.w3.org/2000/svg">
  <g transform="matrix(0.1, 0, 0, -0.1, 0, 172)" fill="#000000" stroke="none">
    <rect x="56.297" y="-1561.942" width="1602.631" height="1462.271" transform="matrix(1, 0, 0, -1, 0, 0)" style="fill: rgb(255, 255, 255);"/>
    <path d="M0 860 l0 -860 850 0 850 0 0 860 0 860 -850 0 -850 0 0 -860z m631 570 c10 -6 26 -24 34 -40 14 -27 14 -33 0 -59 l-15 -30 364 6 363 6 18 -27 c22 -34 15 -73 -25 -132 -36 -51 -73 -79 -95 -70 -16 6 -20 36 -6 51 17 20 21 74 6 89 -22 22 -108 29 -246 19 l-124 -8 -1 -187 c-1 -195 -6 -218 -45 -218 -10 0 -26 11 -35 24 -13 21 -15 52 -12 195 2 105 -1 173 -7 179 -6 5 -60 7 -125 3 l-115 -6 -114 -68 c-114 -68 -163 -88 -175 -69 -11 19 4 36 83 95 102 77 174 147 195 191 16 33 42 66 52 66 3 0 14 -5 25 -10z m-21 -358 c0 -40 -129 -174 -214 -221 -47 -27 -96 -27 -130 0 -33 26 -37 79 -6 79 37 0 214 83 275 129 46 35 75 40 75 13z m506 -10 c27 -25 199 -82 307 -102 68 -13 75 -34 28 -81 -53 -53 -103 -41 -280 67 -114 69 -155 124 -93 124 15 0 32 -4 38 -8z m234 -288 c11 -12 10 -18 -4 -32 -15 -15 -43 -17 -229 -17 l-212 0 0 -55 0 -55 186 -3 c153 -2 189 -5 200 -18 10 -12 9 -18 -3 -31 -13 -13 -47 -16 -200 -17 l-183 -1 -3 -68 -3 -68 83 3 83 3 12 47 c15 63 19 68 55 68 31 0 68 -24 68 -44 0 -5 -14 -24 -31 -42 l-31 -32 39 -6 c21 -3 130 -10 241 -16 112 -5 208 -12 213 -16 30 -18 -22 -86 -76 -100 -30 -8 -118 0 -170 15 -88 25 -208 40 -365 46 -179 7 -583 -8 -720 -27 -132 -17 -164 -16 -168 5 -4 19 29 61 61 79 10 5 146 11 304 14 158 2 291 8 295 12 5 5 8 36 6 68 l-3 59 -35 4 c-19 1 -88 -2 -153 -9 -96 -10 -124 -10 -143 1 -32 17 -30 35 6 54 22 11 63 15 168 15 94 0 142 4 150 12 17 17 15 83 -3 98 -13 11 -38 11 -128 2 -237 -24 -257 -24 -257 5 0 20 19 38 55 51 20 7 178 11 456 11 374 1 428 -1 439 -15z" style="fill: rgb(198, 48, 48);"/>
  </g>
</svg>